<svg width="138" height="38" viewBox="0 0 138 38" fill="none" xmlns="http://www.w3.org/2000/svg">
<path d="M9.03557 31.3837H3.88401V18.4043H0.374664V14.1784H3.88387V11.1714C3.88387 7.60812 5.436 5.05255 10.5736 5.05255C11.6602 5.05255 13.3662 5.27391 13.3662 5.27391V9.19784H11.5744C9.74868 9.19784 9.03585 9.75911 9.03585 11.3108V14.1784H13.2978L12.9183 18.4043H9.03571L9.03557 31.3837ZM20.856 13.8407C20.7809 13.8407 20.7037 13.8435 20.6272 13.8454C15.8504 13.8454 13.6649 17.477 13.6649 22.632C13.6649 29.126 16.4998 31.7251 20.6646 31.7251C23.0474 31.7251 24.6129 30.7115 25.5644 28.8198V31.3855H30.4643V14.1802H25.5644V16.8261C24.7875 15.1238 23.1782 13.8609 20.856 13.8407ZM22.1019 17.9063C24.1081 17.9063 25.3123 19.3206 25.3123 21.7264L25.317 24.1836C25.317 25.8051 24.3224 27.7021 22.1019 27.7021C18.6881 27.7021 18.7793 23.9766 18.7793 22.7358C18.7793 18.5619 20.5981 17.9063 22.1019 17.9063ZM32.4431 22.7837C32.4431 20.693 32.3441 13.8519 41.1628 13.8519C44.7028 13.8519 46.181 14.9895 46.181 14.9895L44.9929 18.7138C44.9929 18.7138 43.5166 17.8922 41.5931 17.8922C39.1293 17.8922 37.5572 19.3357 37.5572 21.8755L37.56 23.6967C37.56 26.1371 39.0768 27.7662 41.5981 27.7662C43.3505 27.7662 44.9657 26.9369 44.9657 26.9369L46.1507 30.5834C46.1507 30.5834 44.7992 31.7282 41.1876 31.7282C32.7908 31.7282 32.4433 25.5904 32.4433 22.7837H32.4431ZM74.9107 13.8454C79.6877 13.8454 81.9076 17.477 81.9076 22.632C81.9076 29.126 79.0726 31.7251 74.9078 31.7251C72.525 31.7251 70.7636 30.7116 69.812 28.8198V31.3855L64.9738 31.3836V5.57569L70.1108 5.12288V16.593C70.8522 14.5863 73.2887 13.8454 74.9108 13.8454H74.9107ZM73.4705 17.9063C71.4642 17.9063 70.1108 19.3206 70.1108 21.7264L70.106 24.1836C70.103 25.8051 71.0433 27.7021 73.4705 27.7021C76.8843 27.7021 76.7931 23.9766 76.7931 22.7358C76.7931 18.5619 74.9744 17.9063 73.4705 17.9063ZM55.094 13.8596C49.6759 13.8596 46.8156 16.8452 46.8156 22.1509V23.1367C46.8156 30.0229 50.8324 31.7959 55.6213 31.7959C60.276 31.7959 62.3829 30.48 62.3829 30.48L61.4217 26.9759C61.4217 26.9759 58.9433 28.0416 56.2372 28.0416C53.4318 28.0416 52.2253 27.319 51.916 24.5941H62.7936V21.7829C62.7936 16.0276 59.5834 13.8595 55.0938 13.8595L55.094 13.8596ZM55.2245 17.3685C57.1 17.3685 58.3152 18.5308 58.2485 21.2265H51.9254C52.0351 18.3893 53.3456 17.3686 55.2245 17.3686V17.3685ZM92.1505 13.836C86.5866 13.836 83.6575 17.0049 83.6575 22.6838C83.6575 30.4756 88.7066 31.7298 92.1598 31.7298C97.215 31.7298 100.578 28.9792 100.578 22.7546C100.578 16.2759 96.7966 13.836 92.1505 13.836V13.836ZM92.0805 17.9204C94.527 17.9204 95.4964 19.771 95.4964 21.8775V23.6885C95.4964 26.2404 94.14 27.7164 92.0712 27.7164C90.1364 27.7164 88.7766 26.3357 88.7766 23.6885V21.8775C88.7766 19.0542 90.3946 17.9204 92.0805 17.9204V17.9204ZM110.812 13.836C105.248 13.836 102.319 17.0049 102.319 22.6838C102.319 30.4756 107.368 31.7298 110.821 31.7298C115.876 31.7298 119.24 28.9792 119.24 22.7546C119.24 16.2759 115.458 13.836 110.812 13.836V13.836ZM110.742 17.9204C113.188 17.9204 114.158 19.771 114.158 21.8775V23.6885C114.158 26.2404 112.801 27.7164 110.733 27.7164C108.798 27.7164 107.438 26.3357 107.438 23.6885V21.8775C107.438 19.0542 109.056 17.9204 110.742 17.9204V17.9204ZM121.181 31.3837V5.57569L126.333 5.12288V22.421L131.444 14.1784H136.885L131.553 22.7154L137.09 31.3837H131.634L126.333 22.9668V31.3837H121.181Z" fill="#6E7191"/>
</svg>
