<svg width="109" height="38" viewBox="0 0 109 38" fill="none" xmlns="http://www.w3.org/2000/svg">
<path d="M103.709 7.5935H98.9566V0.939697H88.5206L83.7213 7.5935H75.193L72.3414 10.4451V7.5935H65.6876V0.939697H44.7757V7.5935H15.3564L10.5561 0.939697H0.100159V23.7527L13.4078 37.0603H26.7154V33.2581L30.5175 37.0603H56.1822V33.2581L59.9843 37.0603H72.3414V33.2581L76.1436 37.0603H99.9071L108.462 28.5054V12.3462L103.709 7.5935ZM16.2594 17.0989H9.60558V19H16.2594V26.6043H5.80341L2.00124 22.8022V2.84078H9.60558V9.49458H16.2594V17.0989ZM44.7757 26.6043H21.9626L18.1605 22.8022V9.49458H25.7648V19H27.6659V9.49458H35.2702V19H37.1713V9.49458H44.7757V26.6043ZM54.2811 26.6043H46.6767V9.49458H54.2811V26.6043ZM54.2811 7.5935H46.6767V2.84078H54.2811V7.5935ZM70.4403 17.0989H63.7865V19H70.4403V26.6043H59.9843L56.1822 22.8022V2.84078H63.7865V9.49458H70.4403V17.0989ZM87.5501 17.0989H79.9457V19H87.5501V26.6043H76.1436L72.3414 22.8022V13.2968L76.1436 9.49458H87.5501V17.0989ZM106.561 26.6043H98.9566V17.0989H97.0555V26.6043H89.4512V2.84078H97.0555V9.49458H102.759L106.561 13.2968V26.6043Z" fill="#6E7191"/>
</svg>
