<svg width="136" height="38" viewBox="0 0 136 38" fill="none" xmlns="http://www.w3.org/2000/svg">
<path d="M44.0064 15.3046C44.0064 12.8854 41.654 10.3161 37.5832 10.3161C33.0119 10.3161 27.9901 13.6696 27.2226 20.3597C26.4385 27.1166 30.6428 30.1197 34.8805 30.1197C39.1181 30.1197 41.3371 28.468 43.606 26.2658C41.654 23.8133 39.1348 24.9477 38.651 25.198C38.1171 25.4649 37.4331 25.832 36.0316 25.832C34.3966 25.832 32.7283 25.0979 32.7283 22.0448C43.2056 21.0104 44.0064 17.7237 44.0064 15.3046ZM38.8178 15.705C38.7511 16.4557 38.4508 17.7404 33.1454 18.4578C34.2632 14.4871 36.3987 14.1868 37.383 14.1868C38.3006 14.1868 38.8845 14.9042 38.8178 15.705ZM21.0664 16.3556C21.0664 16.3556 18.8141 23.4295 18.6305 24.0135C18.5638 23.4128 16.9121 10.7165 16.9121 10.7165C13.0749 10.7165 11.0228 13.4527 9.93832 16.339C9.93832 16.339 7.20219 23.4295 6.96862 24.0301C6.95194 23.4796 6.55153 16.4224 6.55153 16.4224C6.31796 12.8854 3.08132 10.7332 0.461975 10.7332L3.63188 29.9695C7.65265 29.9529 9.82153 27.2334 10.956 24.3471C10.956 24.3471 13.3752 18.0907 13.4753 17.8071C13.4919 18.0741 15.2104 29.9695 15.2104 29.9695C19.2478 29.9695 21.4167 27.4169 22.5846 24.6308L28.2403 10.7332C24.2529 10.7332 22.1508 13.4527 21.0664 16.3556ZM58.8216 10.2828C56.3357 10.2828 54.4338 11.6341 52.8321 13.6195V13.6028L54.2669 2.04102C50.9636 2.04102 48.2775 4.91061 47.7603 9.18164L45.2577 29.8194C47.1597 29.8194 49.1784 29.2688 50.2628 27.8674C51.2305 29.1187 52.682 30.1197 54.8342 30.1197C60.4065 30.1197 64.2271 23.6464 64.2271 17.5735C64.1937 12.0346 61.5077 10.2828 58.8216 10.2828ZM58.3044 20.2096C57.7205 23.5964 55.8352 25.8987 54.0167 25.8987C52.1815 25.8987 51.3973 25.0812 51.3973 25.0812C51.7477 22.1115 51.9646 20.293 52.6319 18.7247C53.2993 17.1565 54.8842 14.6539 56.5359 14.6539C58.1542 14.6539 58.8883 16.8061 58.3044 20.2096ZM78.1413 10.7332H74.254L74.2707 10.533C74.5376 7.9971 75.1382 6.6624 77.1236 6.44551C78.475 6.31204 79.0756 5.61133 79.2257 4.84388C79.3425 4.24326 79.7096 2.1578 79.7096 2.1578C71.9016 2.10775 69.4491 5.47786 68.8151 10.6164L68.7984 10.7332H68.715C67.4471 10.7332 66.0456 12.168 65.8121 13.9865L65.7286 14.6539H68.3313L66.1457 32.7057L65.4784 35.9423C65.5618 35.9423 65.6619 35.959 65.7453 35.959C69.399 35.8255 71.7348 32.9392 72.252 28.7516L73.9537 14.6539H75.1716C76.3728 14.6539 77.7743 13.4527 78.0245 11.4506L78.1413 10.7332ZM98.362 10.3996C93.874 10.3996 89.6364 13.7029 88.3351 18.8916C87.0337 24.0802 89.0024 30.2198 95.6091 30.2198C102.199 30.2198 106.003 23.8299 106.003 18.5078C106.003 13.2191 102.416 10.3996 98.362 10.3996ZM100.18 20.0427C99.9469 22.3951 98.9125 25.9654 96.0763 25.9654C93.2234 25.9654 93.6238 21.7945 93.9074 19.8092C94.2077 17.6903 95.3923 14.6706 97.9449 14.6706C100.231 14.6706 100.447 17.39 100.18 20.0427ZM128.176 16.3556C128.176 16.3556 125.923 23.4295 125.74 24.0135C125.673 23.4128 124.021 10.7165 124.021 10.7165C120.184 10.7165 118.132 13.4527 117.048 16.339C117.048 16.339 114.312 23.4295 114.078 24.0301C114.061 23.4796 113.661 16.4224 113.661 16.4224C113.427 12.8854 110.191 10.7332 107.571 10.7332L110.725 29.9695C114.745 29.9529 116.914 27.2334 118.049 24.3471C118.049 24.3471 120.468 18.0907 120.551 17.8071C120.585 18.0741 122.286 29.9695 122.286 29.9695C126.324 29.9695 128.493 27.4169 129.661 24.6308L135.316 10.7332C131.346 10.7332 129.243 13.4527 128.176 16.3556ZM81.8117 2.1578L78.5417 28.5347L77.8744 31.7881C77.9578 31.7881 78.0579 31.8047 78.1413 31.8047C81.6616 31.7547 84.1641 28.6682 84.6313 24.7809L86.5165 9.64878C87.0838 5.0274 84.331 2.1578 81.8117 2.1578Z" fill="#6E7191"/>
</svg>
