<svg width="96" height="96" viewBox="0 0 96 96" fill="none" xmlns="http://www.w3.org/2000/svg">
<circle cx="48" cy="48" r="48" fill="#E5E5E5"/>
<path d="M72.9999 37.9993C72.9999 36.6243 71.8749 35.4993 70.4999 35.4993H52.9999C51.6249 35.4993 50.4999 36.6243 50.4999 37.9993C50.4999 39.3743 51.6249 40.4993 52.9999 40.4993H70.4999C71.8749 40.4993 72.9999 39.3743 72.9999 37.9993ZM50.4999 57.9993C50.4999 59.3743 51.6249 60.4993 52.9999 60.4993H70.4999C71.8749 60.4993 72.9999 59.3743 72.9999 57.9993C72.9999 56.6243 71.8749 55.4993 70.4999 55.4993H52.9999C51.6249 55.4993 50.4999 56.6243 50.4999 57.9993ZM44.1749 29.5743C45.1499 30.5493 45.1499 32.1243 44.1749 33.0993L33.5999 43.7243C32.6249 44.6993 31.0499 44.6993 30.0499 43.7243L24.7499 38.3993C23.7749 37.4243 23.7749 35.8493 24.7499 34.8743C25.7249 33.8993 27.2999 33.8993 28.2749 34.8743L31.8249 38.4243L40.6749 29.5743C41.6249 28.6243 43.2249 28.6243 44.1749 29.5743ZM44.1999 49.5993C45.1749 50.5743 45.1749 52.1493 44.1999 53.1243L33.6249 63.7493C32.6499 64.7243 31.0749 64.7243 30.0749 63.7493L24.7499 58.3993C23.7749 57.4243 23.7749 55.8493 24.7499 54.8743C25.7249 53.8993 27.2999 53.8993 28.2749 54.8743L31.8249 58.4243L40.6749 49.5743C41.6249 48.6243 43.2249 48.6243 44.1999 49.5993Z" fill="#061056"/>
</svg>
