<svg width="96" height="96" viewBox="0 0 96 96" fill="none" xmlns="http://www.w3.org/2000/svg">
<circle cx="48" cy="48" r="48" fill="#E5E5E5"/>
<path d="M23.1527 43.1508C24.4277 44.4258 26.4527 44.5508 27.8277 43.4008C39.5027 33.8008 56.4527 33.8008 68.1527 43.3758C69.5527 44.5258 71.6027 44.4258 72.8777 43.1508C74.3527 41.6758 74.2527 39.2258 72.6277 37.9008C58.3527 26.2258 37.7027 26.2258 23.4027 37.9008C21.7777 39.2008 21.6527 41.6508 23.1527 43.1508V43.1508ZM42.5527 62.5508L46.2277 66.2258C47.2027 67.2008 48.7777 67.2008 49.7527 66.2258L53.4277 62.5508C54.6027 61.3758 54.3527 59.3508 52.8527 58.5758C49.8027 57.0008 46.1527 57.0008 43.0777 58.5758C41.6527 59.3508 41.3777 61.3758 42.5527 62.5508ZM33.2277 53.2258C34.4527 54.4508 36.3777 54.5758 37.8027 53.5508C43.9027 49.2258 52.1027 49.2258 58.2027 53.5508C59.6277 54.5508 61.5527 54.4508 62.7777 53.2258L62.8027 53.2008C64.3027 51.7008 64.2027 49.1508 62.4777 47.9258C53.8777 41.7008 42.1527 41.7008 33.5277 47.9258C31.8027 49.1758 31.7027 51.7008 33.2277 53.2258V53.2258Z" fill="#061056"/>
</svg>
