<svg width="96" height="96" viewBox="0 0 96 96" fill="none" xmlns="http://www.w3.org/2000/svg">
<circle cx="48" cy="48" r="48" fill="#E5E5E5"/>
<path d="M70.5 52.999C70.5 51.624 69.375 50.499 68 50.499H63V55.499H68C69.375 55.499 70.5 54.374 70.5 52.999Z" fill="#061056"/>
<path d="M68 60.498H63V65.498H68C69.375 65.498 70.5 64.373 70.5 62.998C70.5 61.623 69.375 60.498 68 60.498Z" fill="#061056"/>
<path d="M57.9961 48H52.9961C50.2461 48 47.9961 50.25 47.9961 53H45.4961C44.1211 53 42.9961 54.125 42.9961 55.5V60.5C42.9961 61.875 44.1211 63 45.4961 63H47.9961C47.9961 65.75 50.2461 68 52.9961 68H57.9961C59.3711 68 60.4961 66.875 60.4961 65.5V50.5C60.4961 49.125 59.3711 48 57.9961 48Z" fill="#061056"/>
<path d="M30.5 50.499C30.5 47.749 32.75 45.499 35.5 45.499H39.25C44.075 45.499 48 41.574 48 36.749C48 31.924 44.075 27.999 39.25 27.999H30.5C29.125 27.999 28 29.124 28 30.499C28 31.874 29.125 32.999 30.5 32.999H39.25C41.325 32.999 43 34.674 43 36.749C43 38.824 41.325 40.499 39.25 40.499H35.5C29.975 40.499 25.5 44.974 25.5 50.499C25.5 56.024 29.975 60.499 35.5 60.499H40.5V55.499H35.5C32.75 55.499 30.5 53.249 30.5 50.499Z" fill="#061056"/>
</svg>
