<svg width="96" height="96" viewBox="0 0 96 96" fill="none" xmlns="http://www.w3.org/2000/svg">
<circle cx="48" cy="48" r="48" fill="#E5E5E5"/>
<path d="M68.0039 27.999H28.0039C25.2539 27.999 23.0289 30.249 23.0289 32.999L23.0039 62.999C23.0039 65.749 25.2539 67.999 28.0039 67.999H68.0039C70.7539 67.999 73.0039 65.749 73.0039 62.999V32.999C73.0039 30.249 70.7539 27.999 68.0039 27.999ZM65.5039 62.999H30.5039C29.1289 62.999 28.0039 61.874 28.0039 60.499V37.999L45.3539 48.849C46.9789 49.874 49.0289 49.874 50.6539 48.849L68.0039 37.999V60.499C68.0039 61.874 66.8789 62.999 65.5039 62.999ZM48.0039 45.499L28.0039 32.999H68.0039L48.0039 45.499Z" fill="#061056"/>
</svg>
